<?xml version="1.0" encoding="iso-8859-1"?>
<!-- Generator: Adobe Illustrator 26.0.0, SVG Export Plug-In . SVG Version: 6.00 Build 0)  -->
<svg version="1.1" id="Layer_1" xmlns="http://www.w3.org/2000/svg" xmlns:xlink="http://www.w3.org/1999/xlink" x="0px" y="0px"
	 width="587.679px" height="554.997px" viewBox="0 0 587.679 554.997" enable-background="new 0 0 587.679 554.997"
	 xml:space="preserve">
<path id="_x23_000000" d="M548.979,196.489c-23.984-14.09-48.581-17.186-73.099-9.207c-49.538,16.122-86.019,73.353-102.553,104.112
	c-5.123-12.404-11.88-26.832-20.778-43.79c15.9-15.55,23.101-27.073,31.041-41.117c13.606-24.067,15.774-44.214,5.522-51.33
	c-8.457-5.873-26.317-2.107-53.356,21.539c-0.421-4.822-2.004-18.786-7.029-33.795c3.459,0.896,7.233,1.363,11.236,1.363
	c2.794,0,5.7-0.236,8.672-0.684l0.01,0.007l2.782-0.382c9.4-1.267,20.056-2.704,35.093-12.08c7.388-4.607,14.957-7.635,21.039-10.07
	c1.793-0.718,3.434-1.374,4.868-1.993c6.088-2.623,14.034-2.315,17.165-2.06c4.173,0.334,7.64,1.574,10.302,3.685
	c3.415,2.721,5.834,6.857,6.316,10.79c0.26,2.146-0.007,4.243-0.794,6.233c-0.808,2.041-2.1,3.913-3.737,5.414
	c-3.169,2.941-7.841,4.555-11.905,4.11c-1.941-0.206-3.668-0.86-4.998-1.891c-1.322-1.023-2.293-2.366-2.607-3.624
	c-0.297-1.021-0.128-2.255,0.505-3.748c0.487-1.068,1.097-2.139,1.977-3.182c0.304-0.36,1.073-1.184,0.681-1.755
	c-0.387-0.563-1.43,0.187-1.826,0.439c-2.138,1.363-4.939,3.586-5.581,7.36c-0.276,1.746,0.029,3.665,0.808,5.204
	c0.272,0.663,0.638,1.219,0.99,1.758l0.39,0.581c0.165,0.181,0.321,0.375,0.48,0.569c0.378,0.467,0.772,0.95,1.242,1.302
	c2.53,2.257,5.904,3.646,9.489,3.907c0.576,0.049,1.153,0.073,1.734,0.073c2.775,0,5.597-0.547,8.25-1.606
	c6.405-2.498,11.488-8.133,13.264-14.701c0.881-3.196,0.97-6.652,0.258-9.991c-0.616-2.932-1.83-5.794-3.609-8.504l-0.002-0.003
	c-1.613-2.439-3.568-4.559-5.81-6.299c-2.112-1.628-4.457-2.899-6.976-3.783c-4.539-1.563-8.687-1.72-12.149-1.669
	c-1.609,0.036-2.827,0.094-3.833,0.184c-7.813,0.693-13.41-1.638-15.262-3.377c-7.628-7.16,0.725-22.6,9.076-34.291
	c9.07-12.697,21.05-22.095,28.678-27.313c1.502-1.027,3.104-1.883,4.788-2.573c6.215-2.545,22.608-8.927,27.05-10.565
	c0.876-0.323,1.654-0.549,3.449-1.433c1.536-0.757-2.806-0.351-3.743-0.303c-19.156,0.976-67.27,4.331-99.952,21.122
	c-1.668,0.857-3.411,1.739-5.212,2.65c-22.646,11.454-55.563,28.129-60.911,58.864c-2.126-2.19-4.413-4.219-6.904-6.008
	c-26.194-18.81-60.664-20.509-85.916-11.877c1.336-7.719,10.042-45.511,57.22-89.541c0.69-0.646,0.793-1.672,0.243-2.439
	c-0.552-0.766-1.519-0.988-2.347-0.541c-23.634,12.698-100.002,58.953-96.059,123.598c0.037,0.612-0.128,1.213-0.48,1.714
	c-2.62,3.739-5.175,7.888-7.547,12.511l-0.274,0.536c-6.993,13.625-14.152,27.598-11.658,46.177
	c-4.555-3.205-16.664-10.473-24.935-3.904c-2.149,1.707-3.287,5.155-3.287,9.972c-0.002,11.638,6.763,31.727,21.255,52.164
	c0.003,0.032,0,0.057,0.003,0.089l0.056-0.005c7.8,10.984,17.827,22.065,30.249,31.986c0.184,28.844,3.107,66.68,15.582,88.212
	c-0.302,3.007-2.033,26.885,16.974,39.645c8.583,5.764,16.074,9.334,22.094,12.203c7.78,3.708,12.477,5.946,12.91,9.711
	c0.297,2.576-3.125,9.657-7.663,17.819c-39.055-18.8-85.073-51.613-131.192-108.672l-1.479-1.831l-0.099,2.352
	c-0.016,0.396-1.49,38.355,6.445,62.506c-12.04-9.72-66.956-56.35-111.541-131.993L0,261.515l0.418,4.047
	c0.042,0.402,4.391,40.857,25.24,96.266c19.239,51.13,56.869,125.845,126.881,191.426l1.861,1.743l-0.376-2.522
	c-0.101-0.682-10.049-68.146-9.154-112.129c6.329,2.692,36.753,15.131,81.279,25.638c-3.546,5.843-6.563,10.839-7.865,13.442
	c-0.966,1.934-2.419,4.096-3.956,6.386c-5.536,8.243-13.105,19.517-6.153,33.277c-0.212,1.898-1.063,12.343,5.175,17.179
	c2.043,1.583,4.601,2.375,7.655,2.374c3.13,0,6.781-0.832,10.93-2.494c0.954,0.309,3.51,0.806,7.158-0.981
	c6.965-3.419,19.094-16.115,32.016-60.359c17.791,2.789,36.842,4.948,56.803,5.995c1.032,0.054,2.121,0.121,3.235,0.189
	c0.443,0.027,0.895,0.053,1.344,0.08l-0.007,0.008l1.636,0.089c0.059,0.003,0.117,0.007,0.176,0.01l0.434,0.023l0.001-0.002
	c1.382,0.073,3.058,0.148,4.615,0.148c7.573-0.001,15.164-0.397,22.746-1.15c-0.342,1.592-0.732,3.321-1.163,5.223
	c-3.706,16.347-9.296,40.999,1.563,49.291c0.803,1.898,6.183,13.861,14.452,14.393c0.189,0.012,0.378,0.018,0.569,0.018
	c4.905,0,9.716-4.098,14.307-12.192c2.178-1.134,12.159-9.372,13.03-64.918c31.942-9.101,62.754-24.68,90.262-45.977
	c42.047-32.554,73.571-76.185,86.49-119.707C596.163,257.264,584.274,217.227,548.979,196.489z M282.456,427.767
	c0.824-4.078,0.481-12.668-3.498-17.223c14.047-1.458,29.147-5.63,44.954-12.509l-0.225-0.518
	c10.178,9.867,24.166,15.208,41.685,15.9c-0.013,5.383-0.147,34.751-1.454,52.866c-8.746,0.912-17.643,1.327-26.67,1.188
	c-2.218-0.034-4.442-0.088-6.674-0.191c-12.232-0.557-31.224-2.838-54.669-10.269C278.088,448.251,280.279,438.552,282.456,427.767z
	 M404.824,453.978c-0.018-1.091-0.044-2.164-0.073-3.227c0.044-0.163,0.094-0.327,0.135-0.489l-0.149-0.038
	c-1.034-35.706-7.981-55.393-20.661-58.572c-0.712-5.466-0.951-12.412,0.56-19.631c0.257-1.223,0.55-2.469,0.857-3.765
	c2.551-10.8,5.963-25.37-5.375-58.892c11.351-22.956,49.122-91.976,100.178-108.576c20.488-6.658,41.175-3.985,61.486,7.952
	c29.203,17.159,38.752,51.257,26.197,93.551c-19.4,65.356-81.789,131.856-163.106,155.853
	C404.859,456.764,404.848,455.404,404.824,453.978z"/>
<path id="_x23_000000_00000110450604041292383110000010079783739920717491_" d="M266.427,169.569
	c0,14.13,9.915,25.625,22.104,25.625c12.189,0,22.104-11.495,22.104-25.625s-9.915-25.625-22.104-25.625
	C276.343,143.944,266.427,155.439,266.427,169.569z M288.532,145.72c11.209,0,20.328,10.698,20.328,23.849
	s-9.119,23.849-20.328,23.849c-11.209,0-20.328-10.698-20.328-23.849S277.323,145.72,288.532,145.72z M188.524,161.598
	c-1.8,0.491-4.004,1.092-6.46-0.529c-0.376-0.248-0.882-0.165-1.165,0.185c-0.334,0.412-0.229,1.025,0.215,1.315
	c1.545,1.008,3.043,1.322,4.383,1.322c0.105,0,0.201-0.013,0.304-0.017c1.914,4.455,14.304,31.32,34.512,31.32
	c4.802,0,8.762-1.706,11.769-5.07c7.395-8.272,6.922-24.081,6.564-29.076c-0.022-0.302,0.222-0.55,0.525-0.556
	c6.784-0.14,9.135-2.664,9.931-4.147c0.271-0.504-0.045-1.122-0.611-1.209l-0.115-0.018c-0.351-0.054-0.688,0.128-0.862,0.437
	c-0.674,1.198-3.236,3.921-12.364,2.997c-11.996-1.211-28.108-1.97-46.418,2.988L188.524,161.598z M209.85,159.763
	c9.544-0.705,18.06-0.159,25.122,0.556c0.419,0.042,0.817,0.071,1.205,0.095c0.368,0.023,0.66,0.309,0.685,0.677
	c0.319,4.679,0.788,20.143-6.103,27.851c-2.657,2.969-6.171,4.475-10.444,4.475c-10.198,0-18.447-7.641-24.164-15.311
	c-0.185-0.248-0.266-0.561-0.208-0.865c1.352-7.016,10.792-15.221,13.155-17.179C209.312,159.886,209.574,159.784,209.85,159.763z
	 M205.886,160.126c0.142-0.016,0.223,0.158,0.117,0.253c-3.485,3.115-9.493,9.128-11.399,14.99c-0.053,0.162-0.265,0.189-0.36,0.048
	c-3.271-4.844-5.474-9.322-6.454-11.462c-0.075-0.163,0.022-0.347,0.196-0.389c0.525-0.126,1.214-0.311,1.214-0.311
	C195.005,161.682,200.585,160.702,205.886,160.126z M198.616,145.826c-0.702-0.848-0.386-2.008,0.722-2.507
	c1.964-0.885,5.383-1.746,9.857-0.216c1.483,0.507,1.772,2.092,0.501,2.887l-4.844,3.032c-1.275,0.798-3.129,0.557-4.023-0.523
	L198.616,145.826z M179.123,144.788c0.69,0.345,1.445,0.517,2.244,0.517c1.544,0,3.254-0.638,4.997-1.888
	c2.48-1.778,4.78-4.62,6.473-8.002c1.035-2.066,1.795-4.262,2.196-6.35c0.949-4.948-0.167-8.874-2.91-10.247
	c-0.101-0.049-0.203-0.088-0.388-0.155c-4.067-1.598-9.801,2.49-13.325,9.528c-1.694,3.383-2.593,6.927-2.529,9.978
	C175.945,141.424,177.099,143.775,179.123,144.788z M186.73,123.08c0.768-1.33,1.823-2.306,2.949-2.925
	c0.071-0.003,0.146-0.029,0.216-0.029c0.467,0,0.912,0.079,1.328,0.243l0.104,0.039c1.97,0.986,2.74,4.253,1.96,8.323
	c-0.084,0.441-0.191,0.889-0.31,1.339c-1.711,1.395-3.782,1.842-5.365,0.928C185.353,129.693,184.958,126.148,186.73,123.08z
	 M263.6,138.672c7.529,0,13.633-6.104,13.633-13.633c0-7.529-6.104-13.633-13.633-13.633c-7.529,0-13.633,6.104-13.633,13.633
	C249.968,132.568,256.071,138.672,263.6,138.672z M259.919,114.353c3.234,0,5.855,2.621,5.855,5.855
	c0,3.234-2.621,5.855-5.855,5.855c-3.234,0-5.855-2.621-5.855-5.855C254.064,116.974,256.685,114.353,259.919,114.353z
	 M548.979,196.489c-23.984-14.09-48.581-17.186-73.099-9.207c-49.538,16.122-86.019,73.353-102.553,104.112
	c-5.123-12.404-11.88-26.832-20.778-43.79c15.9-15.55,23.101-27.073,31.041-41.117c13.606-24.067,15.774-44.214,5.522-51.33
	c-8.457-5.873-26.317-2.107-53.356,21.539c-0.421-4.822-2.004-18.786-7.029-33.795c3.459,0.896,7.233,1.363,11.236,1.363
	c2.794,0,5.7-0.236,8.672-0.684l0.01,0.007l2.782-0.382c9.4-1.267,20.056-2.704,35.093-12.08c7.388-4.607,14.957-7.635,21.039-10.07
	c1.793-0.718,3.434-1.374,4.868-1.993c6.088-2.623,14.034-2.315,17.165-2.06c4.173,0.334,7.64,1.574,10.302,3.685
	c3.415,2.721,5.834,6.857,6.316,10.79c0.26,2.146-0.007,4.243-0.794,6.233c-0.808,2.041-2.1,3.913-3.737,5.414
	c-3.169,2.941-7.841,4.555-11.905,4.11c-1.941-0.206-3.668-0.86-4.998-1.891c-1.322-1.023-2.293-2.366-2.607-3.624
	c-0.297-1.021-0.128-2.255,0.505-3.748c0.487-1.068,1.097-2.139,1.977-3.182c0.304-0.36,1.073-1.184,0.681-1.755
	c-0.387-0.563-1.43,0.187-1.826,0.439c-2.138,1.363-4.939,3.586-5.581,7.36c-0.276,1.746,0.029,3.665,0.808,5.204
	c0.272,0.663,0.638,1.219,0.99,1.758l0.39,0.581c0.165,0.181,0.321,0.375,0.48,0.569c0.378,0.467,0.772,0.95,1.242,1.302
	c2.53,2.257,5.904,3.646,9.489,3.907c0.576,0.049,1.153,0.073,1.734,0.073c2.775,0,5.597-0.547,8.25-1.606
	c6.405-2.498,11.488-8.133,13.264-14.701c0.881-3.196,0.97-6.652,0.258-9.991c-0.616-2.932-1.83-5.794-3.609-8.504l-0.002-0.003
	c-1.613-2.439-3.568-4.559-5.81-6.299c-2.112-1.628-4.457-2.899-6.976-3.783c-4.539-1.563-8.687-1.72-12.149-1.669
	c-1.609,0.036-2.827,0.094-3.833,0.184c-7.813,0.693-13.41-1.638-15.262-3.377c-7.628-7.16,0.725-22.6,9.076-34.291
	c9.07-12.697,21.05-22.095,28.678-27.313c1.502-1.027,3.104-1.883,4.788-2.573c6.215-2.545,22.608-8.927,27.05-10.565
	c0.876-0.323,1.654-0.549,3.449-1.433c1.536-0.757-2.806-0.351-3.743-0.303c-19.156,0.976-67.27,4.331-99.952,21.122
	c-1.668,0.857-3.411,1.739-5.212,2.65c-22.646,11.454-55.563,28.129-60.911,58.864c-2.126-2.19-4.413-4.219-6.904-6.008
	c-26.194-18.81-60.664-20.509-85.916-11.877c1.336-7.719,10.042-45.511,57.22-89.541c0.69-0.646,0.793-1.672,0.243-2.439
	c-0.552-0.766-1.519-0.988-2.347-0.541c-23.634,12.698-100.002,58.953-96.059,123.598c0.037,0.612-0.128,1.213-0.48,1.714
	c-2.62,3.739-5.175,7.888-7.547,12.511l-0.274,0.536c-6.993,13.625-14.152,27.598-11.658,46.177
	c-4.555-3.205-16.664-10.473-24.935-3.904c-2.149,1.707-3.287,5.155-3.287,9.972c-0.002,11.638,6.763,31.727,21.255,52.164
	c0.003,0.032,0,0.057,0.003,0.089l0.056-0.005c7.8,10.984,17.827,22.065,30.249,31.986c0.184,28.844,3.107,66.68,15.582,88.212
	c-0.302,3.007-2.033,26.885,16.974,39.645c8.583,5.764,16.074,9.334,22.094,12.203c7.78,3.708,12.477,5.946,12.91,9.711
	c0.297,2.576-3.125,9.657-7.663,17.819c-39.055-18.8-85.073-51.613-131.192-108.672l-1.479-1.831l-0.099,2.352
	c-0.016,0.396-1.49,38.355,6.445,62.506c-12.04-9.72-66.956-56.35-111.541-131.993L0,261.515l0.418,4.047
	c0.042,0.402,4.391,40.857,25.24,96.266c19.239,51.13,56.869,125.845,126.881,191.426l1.861,1.743l-0.376-2.522
	c-0.101-0.682-10.049-68.146-9.154-112.129c6.329,2.692,36.753,15.131,81.279,25.638c-3.546,5.843-6.563,10.839-7.865,13.442
	c-0.966,1.934-2.419,4.096-3.956,6.386c-5.536,8.243-13.105,19.517-6.153,33.277c-0.212,1.898-1.063,12.343,5.175,17.179
	c2.043,1.583,4.601,2.375,7.655,2.374c3.13,0,6.781-0.832,10.93-2.494c0.954,0.309,3.51,0.806,7.158-0.981
	c6.965-3.419,19.094-16.115,32.016-60.359c17.791,2.789,36.842,4.948,56.803,5.995c1.032,0.054,2.121,0.121,3.235,0.189
	c0.443,0.027,0.895,0.053,1.344,0.08l-0.007,0.008l1.636,0.089c0.059,0.003,0.117,0.007,0.176,0.01l0.434,0.023l0.001-0.002
	c1.382,0.073,3.058,0.148,4.615,0.148c7.573-0.001,15.164-0.397,22.746-1.15c-0.342,1.592-0.732,3.321-1.163,5.223
	c-3.706,16.347-9.296,40.999,1.563,49.291c0.803,1.898,6.183,13.861,14.452,14.393c0.189,0.012,0.378,0.018,0.569,0.018
	c4.905,0,9.716-4.098,14.307-12.192c2.178-1.134,12.159-9.372,13.03-64.918c31.942-9.101,62.754-24.68,90.262-45.977
	c42.047-32.554,73.571-76.185,86.49-119.707C596.163,257.264,584.274,217.227,548.979,196.489z M374.473,298.991
	c-9.645,10.328-18.379,13.257-23.102,14.158c-0.21,0.04-0.336-0.213-0.18-0.358c8.68-8.059,15.713-21.578,18.083-26.448
	C371.203,290.801,372.934,295.017,374.473,298.991z M352.671,251.694c2.02,3.896,3.947,7.681,5.742,11.308l-20.863,10.974
	c-0.162,0.085-0.33-0.104-0.225-0.255L352.671,251.694z M388.1,156.616c9.299,6.453,6.865,26.144-6.056,48.997
	c-2.618,4.631-5.155,8.985-7.955,13.302c-0.951-0.038-3.375-0.313-5.409-2.152c-2.031-1.837-3.143-4.726-3.302-8.588
	c-0.069-1.651-1.046-3.126-2.551-3.851c-1.242-0.599-2.823-1.775-3.307-3.978c-0.342-1.55,0.104-3.928,0.534-6.228
	c0.597-3.184,1.112-5.934-0.182-7.318c-3.321-3.545-7.04-1.722-10.03-0.253c-2.126,1.045-4.138,2.033-5.749,1.208
	c-2.05-1.046-3.639-4.887-4.855-11.685C364.279,154.852,380.744,151.514,388.1,156.616z M439.703,44.431
	c-7.502,5.573-17.209,13.983-24.882,24.724c-12.744,17.844-15.72,30.164-8.843,36.619c2.497,2.344,8.765,4.547,16.634,3.85
	c0.966-0.087,2.145-0.142,3.708-0.177c3.467-0.049,7.269,0.105,11.533,1.57c2.334,0.819,4.513,2.001,6.473,3.51
	c2.086,1.619,3.907,3.595,5.413,5.872c1.658,2.524,2.787,5.18,3.356,7.896c0.654,3.065,0.572,6.23-0.234,9.156
	c-1.634,6.038-6.306,11.216-12.203,13.517c-2.959,1.181-6.122,1.675-9.194,1.415c-3.158-0.232-6.237-1.494-8.5-3.509
	c-0.356-0.269-0.664-0.649-0.992-1.051c-0.18-0.22-0.359-0.44-0.451-0.52l-0.31-0.482c-0.323-0.49-0.624-0.953-0.862-1.522
	c-0.643-1.276-0.888-2.804-0.669-4.179c0.151-0.893,0.454-1.69,0.853-2.398c-0.352,1.289-0.376,2.434-0.078,3.458
	c0.399,1.599,1.608,3.307,3.235,4.565c1.589,1.233,3.628,2.012,5.895,2.253c4.561,0.498,9.773-1.298,13.299-4.569
	c1.831-1.679,3.278-3.776,4.185-6.066c0.897-2.269,1.202-4.658,0.905-7.101c-0.536-4.379-3.207-8.964-6.974-11.966
	c-2.945-2.335-6.734-3.704-11.263-4.066c-3.271-0.267-11.554-0.583-18.013,2.201c-1.42,0.612-3.047,1.263-4.825,1.975
	c-6.146,2.459-13.797,5.52-21.318,10.211c-14.712,9.174-25.167,10.584-34.39,11.827l-1.012,0.138
	c-0.693,0.095-1.403-0.075-1.958-0.5c-2.008-1.54-3.831-3.335-5.386-5.337c-0.196-0.269-0.393-0.539-0.59-0.808
	c-0.133-0.185-0.266-0.367-0.395-0.56c-0.163-0.243-0.317-0.498-0.473-0.751c-0.135-0.218-0.273-0.432-0.402-0.657
	c-0.153-0.267-0.294-0.547-0.439-0.824c-0.119-0.228-0.243-0.451-0.355-0.686c-0.14-0.293-0.265-0.601-0.394-0.905
	c-0.1-0.237-0.208-0.468-0.301-0.712c-0.122-0.321-0.225-0.657-0.333-0.989c-0.079-0.244-0.168-0.481-0.239-0.731
	c-0.1-0.351-0.176-0.717-0.258-1.08c-0.056-0.249-0.124-0.491-0.172-0.745c-0.073-0.39-0.117-0.798-0.168-1.202
	c-0.031-0.243-0.075-0.477-0.097-0.724c-0.041-0.456-0.048-0.93-0.057-1.402c-0.004-0.211-0.026-0.414-0.023-0.628
	c0.007-0.694,0.046-1.404,0.125-2.132c0.065-0.6,0.158-1.213,0.276-1.838c0.034-0.177,0.085-0.361,0.122-0.539
	c0.096-0.453,0.191-0.905,0.315-1.369c0.059-0.219,0.137-0.446,0.202-0.668c0.127-0.433,0.251-0.865,0.402-1.308
	c0.083-0.243,0.186-0.493,0.276-0.739c0.159-0.431,0.314-0.861,0.495-1.301c0.107-0.26,0.234-0.526,0.35-0.789
	c0.192-0.436,0.38-0.87,0.595-1.313c0.131-0.27,0.28-0.547,0.42-0.82c0.227-0.445,0.451-0.889,0.701-1.341
	c0.155-0.28,0.328-0.566,0.492-0.849c0.262-0.452,0.522-0.904,0.806-1.363c0.182-0.293,0.381-0.591,0.573-0.887
	c0.295-0.457,0.591-0.914,0.909-1.377c0.207-0.302,0.432-0.608,0.649-0.913c0.332-0.464,0.664-0.929,1.018-1.399
	c0.235-0.312,0.486-0.627,0.731-0.941c0.367-0.47,0.736-0.941,1.126-1.416c0.261-0.318,0.537-0.64,0.809-0.96
	c0.405-0.478,0.813-0.957,1.242-1.44c0.289-0.326,0.593-0.655,0.893-0.983c0.441-0.482,0.886-0.964,1.349-1.45
	c0.32-0.335,0.653-0.672,0.984-1.009c0.478-0.486,0.961-0.973,1.462-1.463c0.349-0.341,0.709-0.683,1.069-1.026
	c0.516-0.491,1.039-0.983,1.579-1.477c0.378-0.346,0.766-0.694,1.156-1.041c0.556-0.496,1.121-0.994,1.702-1.494
	c0.407-0.35,0.823-0.702,1.243-1.054c0.595-0.499,1.199-0.999,1.818-1.501c0.441-0.358,0.89-0.716,1.344-1.075
	c0.632-0.5,1.275-1.001,1.931-1.503c0.474-0.363,0.955-0.726,1.441-1.09c0.671-0.502,1.355-1.004,2.05-1.508
	c0.508-0.368,1.022-0.736,1.543-1.105c0.71-0.502,1.434-1.005,2.169-1.509c0.542-0.372,1.088-0.744,1.643-1.116
	c0.75-0.503,1.517-1.007,2.292-1.511c0.577-0.375,1.156-0.75,1.747-1.126c0.791-0.503,1.599-1.006,2.415-1.51
	c0.612-0.378,1.224-0.755,1.85-1.133c0.833-0.503,1.685-1.006,2.543-1.509c0.648-0.38,1.296-0.761,1.959-1.141
	c0.874-0.502,1.771-1.004,2.671-1.506c0.682-0.381,1.362-0.761,2.059-1.142c0.921-0.503,1.865-1.005,2.811-1.508
	c0.716-0.38,1.429-0.761,2.16-1.141c0.963-0.501,1.952-1,2.941-1.5c0.756-0.382,1.505-0.764,2.276-1.145
	c1.008-0.499,2.044-0.997,3.079-1.495c0.79-0.38,1.573-0.761,2.379-1.141c1.055-0.497,2.139-0.992,3.221-1.488
	c0.828-0.379,1.646-0.759,2.49-1.138c1.104-0.495,2.24-0.989,3.371-1.482c0.862-0.376,1.712-0.753,2.59-1.128
	c1.157-0.495,2.349-0.987,3.535-1.48c0.892-0.371,1.771-0.743,2.679-1.112c1.218-0.496,2.473-0.989,3.721-1.482
	c0.919-0.364,1.821-0.728,2.756-1.091c0.926-0.359,4.082-1.547,5.845-2.209C439.733,44.042,439.872,44.305,439.703,44.431z
	 M311.674,114.642c0.077-0.795,0.156-1.589,0.27-2.366c4.501-30.748,37.56-47.479,60.183-58.921c1.804-0.912,3.55-1.796,5.222-2.654
	c28.716-14.755,69.583-19.209,91.735-20.552c0.168-0.01,0.209,0.225,0.052,0.284c-4.441,1.668-14.537,5.875-19.566,7.982
	c-2.002,0.839-4.033,1.617-6.075,2.352c-75.505,27.145-104.864,59.553-106.999,79.251c-1.146,10.586,5.048,17.81,9.479,21.542
	c0.232,0.196,0.117,0.577-0.185,0.61c-6.517,0.697-12.567,0.215-17.776-1.332c-0.72-0.214-1.434-0.435-2.12-0.69
	c-1.752-0.652-3.404-1.424-4.909-2.344c-5.803-3.544-9.076-8.784-9.464-15.152C311.351,119.879,311.425,117.218,311.674,114.642z
	 M272.498,2.502c0.172-0.093,0.327,0.138,0.185,0.272c-48.973,46.111-56.231,85.441-56.996,90.669
	c-5.102,1.886-9.804,4.193-13.932,6.881c-5.458,3.554-14.335,10.409-22.898,21.562c-0.165,0.216-0.516,0.109-0.526-0.162
	C176.162,60.13,248.137,15.618,272.498,2.502z M169.931,139.398l0.276-0.536c10.645-20.746,24.942-32.118,32.515-37.051
	c23.665-15.409,68.534-18.164,99.752,4.259c2.766,1.987,5.288,4.268,7.596,6.758c-0.405,3.164-0.534,6.467-0.322,9.93
	c0.427,6.974,3.991,12.7,10.311,16.56c1.998,1.221,4.212,2.221,6.605,2.994c5.911,17.116,7.247,33.195,7.432,35.859
	c-6.758,6.029-15.558,13.392-22.255,21.911c-0.228,0.29,0.169,0.689,0.438,0.436c9.918-9.307,18.011-16.718,25.405-23.11
	c1.334,6.906,3.079,10.639,5.601,11.927c2.404,1.232,4.915-0.005,7.34-1.195c3.441-1.689,5.69-2.539,7.948-0.128
	c0.68,0.728,0.156,3.528-0.265,5.778c-0.463,2.475-0.943,5.034-0.524,6.936c0.638,2.9,2.674,4.426,4.272,5.195
	c0.912,0.44,1.505,1.331,1.545,2.326c0.182,4.37,1.498,7.685,3.911,9.853c1.9,1.706,4.035,2.293,5.471,2.494
	c-8.074,12.109-18.585,24.172-39.195,41.506c-0.828,0.697-2.407,1.941-2.076,1.841c0.437-0.132,0.626-0.211,2.505-1.322
	c3.466-2.049,9.636-6.226,16.69-13.408c0.515,0.43,0.325,0.271,0.84,0.701l-17.944,25.758c-0.284,0.405-0.255,0.948,0.073,1.319
	c0.21,0.238,0.503,0.364,0.803,0.364c0.168,0,0.34-0.041,0.498-0.124l24.016-12.633c3.446,7.014,6.477,13.53,9.139,19.591
	c-1.249,2.664-9.202,19.119-18.857,27.763c-0.56,0.504-0.725,1.3-0.411,1.982c0.281,0.61,0.883,0.988,1.542,0.988
	c0.076,0,0.153-0.005,0.231-0.016c4.722-0.632,14.043-3.333,24.334-14.077c15.038,39.606,11.318,55.493,8.594,67.018
	c-0.309,1.312-0.607,2.573-0.865,3.81c-1.918,9.161-1.162,17.772-0.08,23.701c0.857,4.699,1.56,8.604,2.016,7.987
	c0.309-0.418-0.575-5.989-0.484-9.775c8.144,2.592,17.424,14.958,18.617,56.979c-4.493,16.322-21.477,34.38-28.143,34.38
	c-5.789,0-9.6-6.526-10.301-7.825c2.595-14.557,2.627-62.497,2.627-64.545v-0.861l-0.86-0.027
	c-19.881-0.608-35.129-7.249-45.32-19.738c-20.548-25.183-13.748-66.142-13.677-66.553c0,0-2.042,1.471-2.322,4.306
	c-21.245-72.535-50.177-107.435-85.984-103.714c-22.046,2.293-31.523,14.976-36.829,27.269c0.279-7.271,0.648-12.71,0.846-15.339
	c0.041-0.547,0.085-1.085,0.119-1.48c0.034-0.408-0.09-0.808-0.349-1.126c-0.24-0.295-0.524-0.646-0.668-0.827
	c-8.053-10.102-13.115-20.302-17.24-29.115c-0.294-0.629-0.576-1.251-0.848-1.87c-0.19-0.432-0.098-0.926,0.217-1.277
	c4.572-5.095,7.497-12.558,7.497-20.923c0-9.919-4.073-18.631-10.178-23.552C163.821,151.315,166.89,145.322,169.931,139.398z
	 M278.958,410.543c14.047-1.458,29.147-5.63,44.954-12.509l-0.225-0.518c10.178,9.867,24.166,15.208,41.685,15.9
	c-0.013,5.383-0.147,34.751-1.454,52.866c-8.746,0.912-17.643,1.327-26.67,1.188c-2.218-0.034-4.442-0.088-6.674-0.191
	c-12.232-0.557-31.224-2.838-54.669-10.269c2.184-8.759,4.374-18.458,6.552-29.243C283.28,423.688,282.937,415.098,278.958,410.543z
	 M265.297,409.303c28.811-7.107,42.035-25.854,45.426-31.467c2.182,5.365,5.062,10.55,8.865,15.213
	c1.011,1.239,2.084,2.406,3.19,3.534C302.085,405.529,282.658,409.783,265.297,409.303z M160.698,160.301
	c0.108-0.345,0.547-0.468,0.812-0.223c5.092,4.713,8.445,12.437,8.445,21.206c0,7.464-2.422,14.189-6.28,18.938
	c-0.302,0.372-0.907,0.263-1.081-0.184C156.406,184.174,157.192,171.535,160.698,160.301z M149.744,239.942
	c-13.28-19.361-19.499-38.105-19.497-49.108c0-4.195,0.93-7.243,2.614-8.581c8.357-6.632,22.077,3.364,24.22,5.007
	c1.028,5.796,2.987,12.035,6.174,18.847c0.872,1.862,1.796,3.794,2.771,5.766c0.091,0.183-0.055,0.393-0.258,0.369
	c-2.426-0.285-6.24-0.1-9.279,2.939c-3.03,3.03-1.842,6.583-0.885,9.438c0.581,1.74,1.133,3.384,0.682,4.576
	c-0.39,1.034-1.249,1.842-2.241,2.778C152.259,233.656,150.146,235.715,149.744,239.942z M180.025,272.765
	c-11.643-9.476-21.11-19.954-28.545-30.342c-0.329-5.229,1.749-7.241,3.784-9.159c1.105-1.041,2.149-2.026,2.685-3.443
	c0.675-1.785-0.003-3.81-0.659-5.768c-0.924-2.759-1.797-5.366,0.456-7.619c2.967-2.969,6.986-2.626,8.832-2.262
	c0.431,0.085,0.79,0.357,0.992,0.748c3.446,6.679,7.651,13.802,13.342,20.899c0.274,0.341,0.412,0.77,0.378,1.207
	C180.988,240.857,179.998,254.889,180.025,272.765z M181.983,258.503c7.147-19.588,18.277-28.798,37.187-30.763
	c35.576-3.715,64.326,32.297,85.416,106.996c-0.55,9.916-0.235,25.965,5.316,40.973c-1.497,2.786-15.487,27.007-51.217,33.162
	c-7.359-0.747-14.316-2.373-20.771-4.951c-18.145-7.245-32.132-21.411-40.469-40.965l0.007-0.055l-0.154-0.264
	C182.287,337.044,181.177,287.402,181.983,258.503z M249.36,424.635c-0.548-4.742-5.866-7.276-13.913-11.111
	c-5.966-2.843-13.391-6.382-21.868-12.074c-14.903-10.007-16.445-27.247-16.362-34.672c8.652,18.384,22.429,31.758,40.038,38.79
	c6.651,2.655,13.806,4.341,21.381,5.098l0.003,0.019c0.021-0.004,0.042-0.008,0.063-0.012c3.014,0.299,6.087,0.465,9.231,0.465
	c2.85,0,5.756-0.134,8.707-0.379c4.472,3.542,4.875,12.695,4.076,16.654c-1.9,9.409-3.804,17.96-5.702,25.798
	c-9.716,12.328-29.164,26.579-39.855,26.579c-1.939,0-3.443-0.634-4.599-1.937c-3.086-3.479-2.56-10.503-2.448-11.677
	c0.078-0.128,0.152-0.25,0.23-0.378C240.187,446.288,249.946,429.722,249.36,424.635z M144.375,438.197l-1.216-0.544l-0.035,1.332
	c-1.008,39.308,6.965,98.384,8.781,111.234C83.345,485.311,46.345,411.746,27.342,361.261
	c-16.896-44.89-22.921-79.907-24.605-91.642c49.942,83.065,111.572,130.235,112.198,130.709l2.468,1.867l-1.103-2.892
	c-7.709-20.237-7.617-53.243-7.428-62.339c39.8,48.798,83.449,84.882,129.77,107.271c0.11,0.053,0.216,0.099,0.326,0.152
	c-3.792,6.719-8.196,13.983-11.855,20.009C177.137,452.655,144.878,438.422,144.375,438.197z M238.466,533.495
	c-3.715,1.88-5.911,1.006-6.118,0.916c-0.454-0.303-5.129-3.569-6.608-10.359c-1.503-6.894,0.665-14.989,6.447-24.07
	c0.261-0.409,0.152-0.955-0.254-1.221c-0.414-0.271-0.979-0.149-1.245,0.269c-6.054,9.511-8.3,18.068-6.674,25.447
	c1.219,5.532,4.306,8.892,6.099,10.443c-6.975,2.582-12.259,2.587-15.672-0.054c-5.921-4.586-4.487-15.71-4.473-15.822l0.038-0.278
	l-0.018-0.035c0.113-1.932,1.21-16.015,9.403-24.814c0.328-0.352,0.33-0.895-0.01-1.235c-0.353-0.353-0.936-0.353-1.277,0.012
	c-6.71,7.184-8.878,17.38-9.574,22.691c-4.166-11.497,2.117-20.906,7.273-28.585c1.57-2.338,3.052-4.546,4.07-6.581
	c1.094-2.188,3.474-6.18,6.364-10.954c0.073,2.953,0.637,7.109,2.989,9.763c1.493,1.684,3.488,2.538,5.931,2.538
	c10.359,0,28.381-12.555,38.898-24.459C259.737,514.443,245.971,529.697,238.466,533.495z M333.959,479.382
	c-0.905-0.051-1.812-0.107-2.706-0.162c-1.117-0.068-2.211-0.136-3.248-0.191c-19.809-1.039-38.734-3.168-56.4-5.929
	c1.27-4.42,2.547-9.172,3.826-14.227c22.585,7.094,41.505,9.564,55.062,10.181c1.568,0.071,3.13,0.121,4.691,0.155l-3.016,3.141
	l4.941,3.407L333.959,479.382z M339.346,479.574c-1.025,0-2.114-0.034-3.134-0.077l3.541-4.075l-4.858-3.348l2.711-2.823
	c8.717,0.122,17.458-0.303,26.179-1.234c-0.296,3.699-0.645,6.847-1.06,9.074c-0.08,0.426-0.172,0.885-0.265,1.342
	C354.857,479.177,347.15,479.573,339.346,479.574z M390.956,535.384l-0.359,0.098l0,0c-0.449,0.081-1.417,0.116-2.536-0.71
	c-2.682-1.977-6.913-9.363-5.363-36.593c0.028-0.488-0.342-0.916-0.83-0.945c-0.491-0.03-0.915,0.354-0.943,0.845
	c-1.525,26.802,2.496,35.564,6.163,38.182c0.893,0.638,1.742,0.903,2.457,0.992c-4.165,6.923-8.366,10.326-12.487,10.082
	c-7.678-0.491-12.966-13.387-13.018-13.518l-0.095-0.235l-0.061-0.045c-0.345-0.709-2.358-6.378,2.531-35.271
	c0.082-0.483-0.241-0.948-0.723-1.031l-0.001,0c-0.484-0.083-0.946,0.251-1.028,0.735c-3.369,19.92-3.498,29.135-3.029,33.35
	c-7.19-9.159-2.312-30.779,1.026-45.503c0.513-2.26,0.971-4.291,1.354-6.121c1.79,2.676,5.502,7.01,10.809,7.01
	c7.17,0,22.128-15.832,28.25-30.994C404.14,529.914,391.061,535.347,390.956,535.384z M404.824,453.978
	c-0.018-1.091-0.044-2.164-0.073-3.227c0.044-0.163,0.094-0.327,0.135-0.489l-0.149-0.038c-1.034-35.706-7.981-55.393-20.661-58.572
	c-0.712-5.466-0.951-12.412,0.56-19.631c0.257-1.223,0.55-2.469,0.857-3.765c2.551-10.8,5.963-25.37-5.375-58.892
	c11.351-22.956,49.122-91.976,100.178-108.576c20.488-6.658,41.175-3.985,61.486,7.952c29.203,17.159,38.752,51.257,26.197,93.551
	c-19.4,65.356-81.789,131.856-163.106,155.853C404.859,456.764,404.848,455.404,404.824,453.978z M579.897,305.827
	c-20.472,68.968-87.631,139.846-175.031,164.573c0.042-3.38,0.054-6.91,0.026-10.641c28.997-8.601,56.917-22.878,81.973-42.211
	c40.188-31.009,70.372-72.835,82.816-114.753c12.805-43.141,2.964-77.981-27.002-95.587c-20.764-12.205-41.942-14.93-62.932-8.11
	c-50.545,16.434-88.104,83.333-100.439,107.912c-1.469-4.203-3.157-8.685-5.107-13.492c16.065-30.198,52.553-88.379,102.226-104.546
	c24.017-7.819,48.124-4.773,71.652,9.049C582.608,218.312,594.209,257.608,579.897,305.827z"/>
<path id="_x23_DE7F7D" fill="#DE7F7D" d="M195.943,177.242c-0.059,0.304,0.023,0.617,0.208,0.865
	c5.717,7.67,13.965,15.311,24.164,15.311c4.273,0,7.787-1.506,10.444-4.475c6.891-7.708,6.422-23.172,6.103-27.851
	c-0.025-0.368-0.317-0.654-0.685-0.677c-0.389-0.024-0.786-0.053-1.205-0.095c-7.062-0.715-15.578-1.261-25.122-0.556
	c-0.277,0.02-0.538,0.123-0.752,0.3C206.735,162.021,197.295,170.226,195.943,177.242z"/>
<g id="_x23_52252C">
	<path id="_x23_52252C_00000031892930238490045610000005338692724193944212_" fill="#52252C" d="M337.606,469.251
		c8.717,0.122,17.458-0.303,26.179-1.234c-0.296,3.699-0.645,6.847-1.06,9.074c-0.08,0.426-0.172,0.885-0.265,1.342
		c-7.603,0.744-15.311,1.14-23.114,1.141c-1.025,0-2.114-0.034-3.134-0.077l3.541-4.075l-4.858-3.348L337.606,469.251z
		 M548.081,198.02c-23.528-13.822-47.635-16.868-71.652-9.049c-49.674,16.167-86.161,74.347-102.226,104.546
		c1.949,4.808,3.637,9.289,5.107,13.492c12.335-24.578,49.894-91.478,100.439-107.912c20.991-6.82,42.169-4.095,62.932,8.11
		c29.966,17.606,39.807,52.446,27.002,95.587c-12.444,41.918-42.628,83.744-82.816,114.753
		c-25.056,19.333-52.976,33.61-81.973,42.211c0.028,3.731,0.016,7.261-0.026,10.641c87.4-24.727,154.559-95.606,175.031-164.573
		C594.209,257.608,582.608,218.312,548.081,198.02z"/>
	<path id="_x23_52252C_00000071542891005079245000000010555051220166942397_" fill="#52252C" d="M205.886,160.126
		c-5.301,0.577-10.881,1.556-16.687,3.128c0,0-0.689,0.185-1.214,0.311c-0.174,0.042-0.271,0.226-0.196,0.389
		c0.98,2.14,3.183,6.619,6.454,11.462c0.095,0.141,0.308,0.114,0.36-0.048c1.906-5.861,7.914-11.875,11.399-14.99
		C206.109,160.283,206.028,160.11,205.886,160.126z"/>
</g>
<g id="_x23_F2F2F3">
	<path id="_x23_F2F2F3_00000137108224608046199530000001273843502279916957_" fill="#F2F2F3" d="M254.064,120.208
		c0-3.234,2.621-5.855,5.855-5.855c3.234,0,5.855,2.621,5.855,5.855c0,3.234-2.621,5.855-5.855,5.855
		C256.685,126.063,254.064,123.442,254.064,120.208z M187.612,130.997c1.583,0.914,3.653,0.467,5.365-0.928
		c0.119-0.45,0.226-0.898,0.31-1.339c0.78-4.07,0.01-7.337-1.96-8.323l-0.104-0.039c-0.416-0.164-0.862-0.243-1.328-0.243
		c-0.07,0-0.145,0.026-0.216,0.029c-1.125,0.62-2.181,1.596-2.949,2.925C184.958,126.148,185.353,129.693,187.612,130.997z"/>
	<path id="_x23_F2F2F3_00000088116281184989534690000006522029117116695979_" fill="#F2F2F3" d="M304.586,334.735
		c-21.09-74.699-49.839-110.711-85.416-106.996c-18.91,1.966-30.041,11.175-37.187,30.763c-0.805,28.9,0.304,78.541,15.314,104.133
		l0.154,0.264l-0.007,0.055c8.338,19.554,22.325,33.72,40.469,40.965c6.455,2.578,13.412,4.203,20.771,4.951
		c35.73-6.154,49.72-30.375,51.217-33.162C304.351,360.7,304.036,344.651,304.586,334.735z"/>
</g>
<g id="_x23_F4D442">
	<path id="_x23_F4D442_00000068678676867038026330000001897719082094269082_" fill="#F4D442" d="M332.169,472.349l4.941,3.407
		l-3.151,3.626c-0.905-0.051-1.812-0.107-2.706-0.162c-1.117-0.068-2.211-0.136-3.248-0.191c-19.809-1.039-38.734-3.168-56.4-5.929
		c1.27-4.42,2.547-9.172,3.826-14.227c22.585,7.094,41.505,9.564,55.062,10.181c1.568,0.071,3.13,0.121,4.691,0.155L332.169,472.349
		z M108.871,336.963c-0.189,9.096-0.281,42.102,7.428,62.339l1.103,2.892l-2.468-1.867c-0.626-0.474-62.256-47.644-112.198-130.709
		c1.684,11.735,7.709,46.753,24.605,91.642c19.003,50.486,56.004,124.05,124.564,188.958c-1.816-12.85-9.789-71.926-8.781-111.234
		l0.035-1.332l1.216,0.544c0.503,0.225,32.762,14.458,82.737,26.199c3.659-6.026,8.063-13.29,11.855-20.009
		c-0.11-0.053-0.216-0.099-0.326-0.152C192.321,421.845,148.671,385.762,108.871,336.963z"/>
	<path id="_x23_F4D442_00000039123735544260424670000009149537463789248665_" fill="#F4D442" d="M268.203,169.569
		c0-13.151,9.119-23.849,20.328-23.849c11.209,0,20.328,10.698,20.328,23.849s-9.119,23.849-20.328,23.849
		C277.323,193.417,268.203,182.719,268.203,169.569z M449.738,120.4c-1.505-2.277-3.326-4.253-5.413-5.872
		c-1.96-1.51-4.138-2.691-6.473-3.51c-4.265-1.466-8.066-1.619-11.533-1.57c-1.563,0.035-2.742,0.09-3.708,0.177
		c-7.869,0.696-14.137-1.506-16.634-3.85c-6.877-6.454-3.901-18.775,8.843-36.619c7.673-10.741,17.38-19.151,24.882-24.724
		c0.169-0.126,0.03-0.389-0.167-0.315c-1.763,0.662-4.919,1.85-5.845,2.209c-0.935,0.362-1.837,0.727-2.756,1.091
		c-1.247,0.494-2.502,0.987-3.721,1.482c-0.908,0.37-1.787,0.741-2.679,1.112c-1.185,0.493-2.377,0.985-3.535,1.48
		c-0.878,0.375-1.728,0.752-2.59,1.128c-1.131,0.494-2.267,0.987-3.371,1.482c-0.844,0.379-1.662,0.758-2.49,1.138
		c-1.081,0.496-2.166,0.991-3.221,1.488c-0.806,0.38-1.589,0.76-2.379,1.141c-1.035,0.498-2.071,0.996-3.079,1.495
		c-0.771,0.381-1.521,0.763-2.276,1.145c-0.989,0.5-1.978,1-2.941,1.5c-0.732,0.38-1.444,0.76-2.16,1.141
		c-0.946,0.503-1.891,1.005-2.811,1.508c-0.697,0.381-1.377,0.761-2.059,1.142c-0.9,0.502-1.796,1.004-2.671,1.506
		c-0.663,0.38-1.31,0.761-1.959,1.141c-0.858,0.503-1.71,1.006-2.543,1.509c-0.626,0.378-1.238,0.756-1.85,1.133
		c-0.816,0.504-1.624,1.007-2.415,1.51c-0.591,0.376-1.17,0.751-1.747,1.126c-0.775,0.504-1.542,1.008-2.292,1.511
		c-0.555,0.372-1.102,0.744-1.643,1.116c-0.734,0.504-1.459,1.007-2.169,1.509c-0.521,0.369-1.035,0.737-1.543,1.105
		c-0.695,0.503-1.379,1.006-2.05,1.508c-0.487,0.364-0.967,0.727-1.441,1.09c-0.656,0.502-1.299,1.003-1.931,1.503
		c-0.453,0.359-0.903,0.717-1.344,1.075c-0.619,0.502-1.223,1.002-1.818,1.501c-0.419,0.352-0.836,0.703-1.243,1.054
		c-0.58,0.5-1.145,0.997-1.702,1.494c-0.389,0.348-0.778,0.695-1.156,1.041c-0.54,0.494-1.063,0.986-1.579,1.477
		c-0.36,0.343-0.72,0.685-1.069,1.026c-0.501,0.49-0.984,0.977-1.462,1.463c-0.331,0.337-0.664,0.674-0.984,1.009
		c-0.464,0.486-0.909,0.969-1.349,1.45c-0.3,0.328-0.603,0.657-0.893,0.983c-0.428,0.483-0.837,0.961-1.242,1.44
		c-0.272,0.32-0.548,0.642-0.809,0.96c-0.39,0.475-0.759,0.946-1.126,1.416c-0.245,0.314-0.496,0.629-0.731,0.941
		c-0.354,0.47-0.687,0.935-1.018,1.399c-0.217,0.305-0.442,0.611-0.649,0.913c-0.318,0.463-0.613,0.92-0.909,1.377
		c-0.191,0.296-0.391,0.594-0.573,0.887c-0.284,0.459-0.545,0.91-0.806,1.363c-0.164,0.283-0.337,0.569-0.492,0.849
		c-0.25,0.452-0.474,0.896-0.701,1.341c-0.139,0.273-0.289,0.55-0.42,0.82c-0.214,0.443-0.403,0.878-0.595,1.313
		c-0.116,0.263-0.243,0.529-0.35,0.789c-0.182,0.44-0.337,0.869-0.495,1.301c-0.09,0.246-0.193,0.496-0.276,0.739
		c-0.151,0.443-0.275,0.875-0.402,1.308c-0.065,0.222-0.143,0.449-0.202,0.668c-0.124,0.464-0.219,0.917-0.315,1.369
		c-0.038,0.179-0.089,0.363-0.122,0.539c-0.118,0.624-0.211,1.237-0.276,1.838c-0.079,0.728-0.118,1.438-0.125,2.132
		c-0.002,0.214,0.019,0.417,0.023,0.628c0.01,0.472,0.017,0.946,0.057,1.402c0.022,0.247,0.067,0.482,0.097,0.724
		c0.051,0.404,0.095,0.811,0.168,1.202c0.048,0.255,0.115,0.496,0.172,0.745c0.082,0.363,0.158,0.729,0.258,1.08
		c0.071,0.25,0.159,0.487,0.239,0.731c0.108,0.332,0.211,0.668,0.333,0.989c0.093,0.244,0.2,0.475,0.301,0.712
		c0.129,0.304,0.254,0.612,0.394,0.905c0.112,0.235,0.236,0.458,0.355,0.686c0.145,0.277,0.286,0.558,0.439,0.824
		c0.13,0.226,0.267,0.439,0.402,0.657c0.156,0.253,0.31,0.509,0.473,0.751c0.129,0.192,0.262,0.375,0.395,0.56
		c0.196,0.269,0.393,0.539,0.59,0.808c1.556,2.003,3.378,3.797,5.386,5.337c0.555,0.426,1.266,0.595,1.958,0.5l1.012-0.138
		c9.223-1.244,19.678-2.654,34.39-11.827c7.522-4.69,15.172-7.752,21.318-10.211c1.778-0.712,3.405-1.362,4.825-1.975
		c6.459-2.784,14.742-2.468,18.013-2.201c4.528,0.362,8.318,1.731,11.263,4.066c3.767,3.002,6.438,7.587,6.974,11.966
		c0.297,2.443-0.009,4.832-0.905,7.101c-0.907,2.29-2.353,4.387-4.185,6.066c-3.526,3.271-8.738,5.067-13.299,4.569
		c-2.267-0.241-4.306-1.02-5.895-2.253c-1.627-1.258-2.836-2.966-3.235-4.565c-0.298-1.024-0.274-2.169,0.078-3.458
		c-0.399,0.708-0.702,1.505-0.853,2.398c-0.219,1.375,0.026,2.902,0.669,4.179c0.238,0.569,0.539,1.032,0.862,1.522l0.31,0.482
		c0.092,0.081,0.271,0.3,0.451,0.52c0.328,0.402,0.636,0.782,0.992,1.051c2.263,2.014,5.342,3.277,8.5,3.509
		c3.072,0.26,6.235-0.234,9.194-1.415c5.897-2.301,10.569-7.478,12.203-13.517c0.806-2.927,0.888-6.092,0.234-9.156
		C452.525,125.581,451.396,122.924,449.738,120.4z M162.594,200.037c-6.188-15.864-5.402-28.502-1.896-39.737
		c0.108-0.345,0.547-0.468,0.812-0.223c5.092,4.713,8.445,12.437,8.445,21.206c0,7.464-2.422,14.189-6.28,18.938
		C163.373,200.593,162.768,200.484,162.594,200.037z M154.046,231.972c0.992-0.937,1.851-1.745,2.241-2.778
		c0.451-1.192-0.101-2.836-0.682-4.576c-0.957-2.856-2.145-6.408,0.885-9.438c3.039-3.039,6.853-3.224,9.279-2.939
		c0.203,0.024,0.348-0.185,0.258-0.369c-0.975-1.972-1.899-3.904-2.771-5.766c-3.188-6.812-5.147-13.05-6.174-18.847
		c-2.143-1.644-15.863-11.639-24.22-5.007c-1.684,1.338-2.614,4.386-2.614,8.581c-0.002,11.003,6.217,29.747,19.497,49.108
		C150.146,235.715,152.259,233.656,154.046,231.972z"/>
</g>
<path id="_x23_FAA84B" fill="#FAA84B" d="M384.35,393.569c-0.091,3.786,0.793,9.358,0.484,9.775
	c-0.456,0.617-1.159-3.288-2.016-7.987c-1.081-5.93-1.837-14.54,0.08-23.701c0.258-1.237,0.557-2.497,0.865-3.81
	c2.724-11.525,6.444-27.413-8.594-67.018c-10.291,10.744-19.613,13.445-24.334,14.077c-0.078,0.01-0.154,0.016-0.231,0.016
	c-0.659,0-1.261-0.377-1.542-0.988c-0.314-0.682-0.149-1.478,0.411-1.982c9.655-8.644,17.608-25.099,18.857-27.763
	c-2.662-6.061-5.694-12.577-9.139-19.591l-24.016,12.633c-0.158,0.083-0.329,0.124-0.498,0.124c-0.3,0-0.593-0.127-0.803-0.364
	c-0.328-0.371-0.357-0.914-0.073-1.319l17.944-25.758c-0.515-0.43-0.325-0.271-0.84-0.701c-7.055,7.182-13.224,11.359-16.69,13.408
	c-1.879,1.111-2.068,1.191-2.505,1.322c-0.331,0.1,1.247-1.145,2.076-1.841c20.61-17.333,31.121-29.396,39.195-41.506
	c-1.436-0.201-3.571-0.788-5.471-2.494c-2.412-2.168-3.729-5.483-3.911-9.853c-0.04-0.995-0.633-1.885-1.545-2.326
	c-1.597-0.769-3.633-2.295-4.272-5.195c-0.42-1.903,0.061-4.462,0.524-6.936c0.421-2.25,0.945-5.05,0.265-5.778
	c-2.258-2.411-4.508-1.561-7.948,0.128c-2.425,1.19-4.936,2.427-7.34,1.195c-2.523-1.287-4.268-5.021-5.601-11.927
	c-7.394,6.392-15.487,13.803-25.405,23.11c-0.269,0.252-0.666-0.146-0.438-0.436c6.697-8.519,15.497-15.882,22.255-21.911
	c-0.185-2.664-1.521-18.743-7.432-35.859c-2.392-0.773-4.607-1.773-6.605-2.994c-6.32-3.861-9.884-9.587-10.311-16.56
	c-0.212-3.463-0.083-6.766,0.322-9.93c-2.308-2.49-4.829-4.771-7.596-6.758c-31.218-22.422-76.087-19.667-99.752-4.259
	c-7.574,4.932-21.87,16.305-32.515,37.051l-0.276,0.536c-3.04,5.924-6.11,11.917-8.378,18.333
	c6.105,4.921,10.178,13.632,10.178,23.552c0,8.365-2.925,15.828-7.497,20.923c-0.315,0.351-0.407,0.845-0.217,1.277
	c0.272,0.618,0.554,1.241,0.848,1.87c4.125,8.813,9.187,19.013,17.24,29.115c0.144,0.181,0.429,0.532,0.668,0.827
	c0.258,0.318,0.383,0.718,0.349,1.126c-0.033,0.396-0.077,0.933-0.119,1.48c-0.198,2.629-0.566,8.068-0.846,15.339
	c5.306-12.292,14.783-24.975,36.829-27.269c35.807-3.721,64.739,31.179,85.984,103.714c0.28-2.834,2.322-4.306,2.322-4.306
	c-0.071,0.41-6.871,41.37,13.677,66.553c10.191,12.489,25.439,19.13,45.32,19.738l0.86,0.027v0.861
	c0,2.048-0.032,49.989-2.627,64.545c0.701,1.299,4.512,7.825,10.301,7.825c6.666,0,23.65-18.058,28.143-34.38
	C401.773,408.528,392.494,396.162,384.35,393.569z M199.337,143.319c1.964-0.885,5.383-1.746,9.857-0.216
	c1.483,0.507,1.772,2.092,0.501,2.887l-4.844,3.032c-1.275,0.798-3.129,0.557-4.023-0.523l-2.213-2.673
	C197.913,144.978,198.23,143.818,199.337,143.319z M175.879,138.168c-0.064-3.051,0.834-6.595,2.529-9.978
	c3.524-7.038,9.258-11.126,13.325-9.528c0.186,0.067,0.288,0.106,0.388,0.155c2.744,1.373,3.859,5.298,2.91,10.247
	c-0.401,2.088-1.16,4.284-2.196,6.35c-1.693,3.382-3.992,6.225-6.473,8.002c-1.743,1.25-3.453,1.888-4.997,1.888
	c-0.799,0-1.554-0.172-2.244-0.517C177.099,143.775,175.945,141.424,175.879,138.168z M249.104,156.344
	c-0.796,1.483-3.147,4.006-9.931,4.147c-0.303,0.006-0.547,0.254-0.525,0.556c0.358,4.996,0.831,20.804-6.564,29.076
	c-3.007,3.365-6.967,5.07-11.769,5.07c-20.209,0-32.599-26.865-34.512-31.32c-0.103,0.004-0.2,0.017-0.304,0.017
	c-1.34,0-2.839-0.314-4.383-1.322c-0.444-0.29-0.549-0.902-0.215-1.315c0.283-0.35,0.789-0.433,1.165-0.185
	c2.456,1.621,4.66,1.02,6.46,0.529l0.21-0.057c18.309-4.958,34.421-4.2,46.418-2.988c9.128,0.923,11.689-1.799,12.364-2.997
	c0.174-0.31,0.511-0.491,0.862-0.437l0.115,0.018C249.059,155.222,249.374,155.84,249.104,156.344z M249.968,125.039
	c0-7.529,6.104-13.633,13.633-13.633c7.529,0,13.633,6.104,13.633,13.633c0,7.529-6.104,13.633-13.633,13.633
	C256.071,138.672,249.968,132.568,249.968,125.039z M288.532,195.193c-12.189,0-22.104-11.495-22.104-25.625
	s9.915-25.625,22.104-25.625c12.189,0,22.104,11.495,22.104,25.625S300.721,195.193,288.532,195.193z M319.588,393.049
	c1.011,1.239,2.084,2.406,3.19,3.534c-20.693,8.946-40.12,13.2-57.481,12.72c28.811-7.107,42.035-25.854,45.426-31.467
	C312.905,383.2,315.785,388.385,319.588,393.049z M280.715,427.414c-1.9,9.409-3.804,17.96-5.702,25.798
	c-9.716,12.328-29.164,26.579-39.855,26.579c-1.939,0-3.443-0.634-4.599-1.937c-3.086-3.479-2.56-10.503-2.448-11.677
	c0.078-0.128,0.152-0.25,0.23-0.378c11.847-19.511,21.606-36.077,21.02-41.164c-0.548-4.742-5.866-7.276-13.913-11.111
	c-5.966-2.843-13.391-6.382-21.868-12.074c-14.903-10.007-16.445-27.247-16.362-34.672c8.652,18.384,22.429,31.758,40.038,38.79
	c6.651,2.655,13.806,4.341,21.381,5.098l0.003,0.019c0.021-0.004,0.042-0.008,0.063-0.012c3.014,0.299,6.087,0.465,9.231,0.465
	c2.85,0,5.756-0.134,8.707-0.379C281.111,414.303,281.515,423.456,280.715,427.414z M180.911,235.82
	c0.274,0.341,0.412,0.77,0.378,1.207c-0.3,3.831-1.29,17.863-1.264,35.739c-11.643-9.476-21.11-19.954-28.545-30.342
	c-0.329-5.229,1.749-7.241,3.784-9.159c1.105-1.041,2.149-2.026,2.685-3.443c0.675-1.785-0.003-3.81-0.659-5.768
	c-0.924-2.759-1.797-5.366,0.456-7.619c2.967-2.969,6.986-2.626,8.832-2.262c0.431,0.085,0.79,0.357,0.992,0.748
	C171.014,221.599,175.219,228.722,180.911,235.82z"/>
<g id="_x23_877161">
	<path id="_x23_877161_00000101088932523255624580000013695597472931928707_" fill="#877161" d="M358.413,263.002l-20.863,10.974
		c-0.162,0.085-0.33-0.104-0.225-0.255l15.346-22.028C354.69,255.59,356.617,259.375,358.413,263.002z M374.473,298.991
		c-1.539-3.974-3.27-8.19-5.199-12.649c-2.371,4.87-9.403,18.39-18.083,26.448c-0.157,0.145-0.03,0.398,0.18,0.358
		C356.094,312.247,364.828,309.319,374.473,298.991z M359.518,200.346c0.484,2.203,2.066,3.378,3.307,3.978
		c1.505,0.725,2.482,2.2,2.551,3.851c0.16,3.862,1.271,6.751,3.302,8.588c2.035,1.839,4.459,2.114,5.409,2.152
		c2.8-4.317,5.338-8.671,7.955-13.302c12.921-22.852,15.356-42.543,6.056-48.997c-7.356-5.101-23.821-1.764-48.864,19.454
		c1.216,6.798,2.805,10.639,4.855,11.685c1.611,0.825,3.623-0.163,5.749-1.208c2.99-1.469,6.708-3.292,10.03,0.253
		c1.294,1.384,0.779,4.134,0.182,7.318C359.622,196.418,359.176,198.797,359.518,200.346z"/>
	<path id="_x23_877161_00000074432940674669675500000016110092454298879397_" fill="#877161" d="M215.686,93.442
		c-5.102,1.886-9.804,4.193-13.932,6.881c-5.458,3.554-14.335,10.409-22.898,21.562c-0.165,0.216-0.516,0.109-0.526-0.162
		C176.162,60.13,248.137,15.618,272.498,2.502c0.172-0.093,0.327,0.138,0.185,0.272C223.709,48.885,216.452,88.214,215.686,93.442z
		 M469.084,30.149c-22.153,1.343-63.019,5.797-91.735,20.552c-1.672,0.859-3.418,1.742-5.222,2.654
		c-22.623,11.442-55.681,28.173-60.183,58.921c-0.114,0.777-0.194,1.571-0.27,2.366c-0.248,2.577-0.323,5.237-0.154,8.01
		c0.388,6.368,3.661,11.608,9.464,15.152c1.505,0.92,3.157,1.692,4.909,2.344c0.686,0.255,1.4,0.476,2.12,0.69
		c5.209,1.547,11.259,2.028,17.776,1.332c0.302-0.032,0.417-0.414,0.185-0.61c-4.43-3.733-10.625-10.956-9.479-21.542
		c2.135-19.698,31.494-52.106,106.999-79.251c2.043-0.734,4.073-1.513,6.075-2.352c5.028-2.108,15.125-6.314,19.566-7.982
		C469.294,30.374,469.252,30.139,469.084,30.149z"/>
	<path id="_x23_877161_00000078040301750637329910000000605535599342161806_" fill="#877161" d="M274.056,457.109
		c-14.318,57.335-28.085,72.589-35.589,76.387c-3.715,1.88-5.911,1.006-6.118,0.916c-0.454-0.303-5.129-3.569-6.608-10.359
		c-1.503-6.894,0.665-14.989,6.447-24.07c0.261-0.409,0.152-0.955-0.254-1.221c-0.414-0.271-0.979-0.149-1.245,0.269
		c-6.054,9.511-8.3,18.068-6.674,25.447c1.219,5.532,4.306,8.892,6.099,10.443c-6.975,2.582-12.259,2.587-15.672-0.054
		c-5.921-4.586-4.487-15.71-4.473-15.822l0.038-0.278l-0.018-0.035c0.113-1.932,1.21-16.015,9.403-24.814
		c0.328-0.352,0.33-0.895-0.01-1.235c-0.353-0.353-0.936-0.353-1.277,0.012c-6.71,7.184-8.878,17.38-9.574,22.691
		c-4.166-11.497,2.117-20.906,7.273-28.585c1.57-2.338,3.052-4.546,4.07-6.581c1.094-2.188,3.474-6.18,6.364-10.954
		c0.073,2.953,0.637,7.109,2.989,9.763c1.493,1.684,3.488,2.538,5.931,2.538C245.516,481.567,263.538,469.012,274.056,457.109z
		 M374.824,486.705c-5.307,0-9.019-4.333-10.809-7.01c-0.383,1.83-0.841,3.861-1.354,6.121c-3.338,14.724-8.216,36.344-1.026,45.503
		c-0.469-4.215-0.34-13.43,3.029-33.35c0.082-0.484,0.544-0.818,1.028-0.735l0.001,0c0.483,0.083,0.805,0.548,0.723,1.031
		c-4.89,28.894-2.876,34.562-2.531,35.271l0.061,0.045l0.095,0.235c0.052,0.131,5.34,13.028,13.018,13.518
		c4.121,0.244,8.322-3.159,12.487-10.082c-0.716-0.089-1.564-0.354-2.457-0.992c-3.667-2.618-7.688-11.38-6.163-38.182
		c0.028-0.491,0.452-0.875,0.943-0.845c0.488,0.03,0.858,0.457,0.83,0.945c-1.55,27.23,2.681,34.617,5.363,36.593
		c1.118,0.825,2.087,0.79,2.536,0.71l0,0l0.359-0.098c0.105-0.037,13.184-5.47,12.117-79.673
		C396.952,470.873,381.994,486.705,374.824,486.705z"/>
</g>
<g>
</g>
<g>
</g>
<g>
</g>
<g>
</g>
<g>
</g>
</svg>
